<svg width="135" height="40" viewBox="0 0 888.8 75.201" xmlns="http://www.w3.org/2000/svg"><g id="svgGroup" stroke-linecap="round" fill-rule="evenodd" font-size="9pt" stroke="#ffffff" stroke-width="0.25mm" fill="#ffffff" style="stroke:#ffffff;stroke-width:0.25mm;fill:#ffffff"><path d="M 0 68.1 L 4.8 60.1 Q 8.4 63.1 12.9 65 A 23.348 23.348 0 0 0 18.27 66.51 A 32.118 32.118 0 0 0 23.4 66.9 A 27.981 27.981 0 0 0 27.947 66.554 Q 30.37 66.154 32.331 65.293 A 13.701 13.701 0 0 0 34.8 63.9 Q 38.848 61.008 38.995 56.166 A 12.116 12.116 0 0 0 39 55.8 A 11.94 11.94 0 0 0 38.663 52.907 A 9.816 9.816 0 0 0 37.8 50.65 A 8.097 8.097 0 0 0 36.6 48.994 Q 35.33 47.613 33.184 46.271 A 25.81 25.81 0 0 0 33.15 46.25 Q 30.034 44.308 24.265 42.08 A 118.584 118.584 0 0 0 23 41.6 Q 15.8 38.8 11.5 35.95 A 21.931 21.931 0 0 1 8.411 33.502 Q 6.694 31.853 5.638 29.987 A 13.303 13.303 0 0 1 5.35 29.45 Q 3.5 25.8 3.5 20.8 Q 3.5 15.8 6.25 11.75 Q 9 7.7 14.35 5.25 A 25.558 25.558 0 0 1 20.25 3.415 Q 23.493 2.8 27.3 2.8 Q 33.5 2.8 38.45 4.05 Q 43.4 5.3 48.1 7.6 L 44.6 15.7 A 31.496 31.496 0 0 0 40.474 13.681 A 41.686 41.686 0 0 0 36.65 12.35 Q 32.1 11 27.1 11 A 27.187 27.187 0 0 0 23.07 11.28 Q 20.938 11.6 19.2 12.287 A 12.616 12.616 0 0 0 16.7 13.6 A 9.902 9.902 0 0 0 14.537 15.565 A 7.359 7.359 0 0 0 12.9 20.3 A 10.464 10.464 0 0 0 13.192 22.822 A 8.562 8.562 0 0 0 14 24.9 Q 15.056 26.819 18.091 28.647 A 23.503 23.503 0 0 0 18.35 28.8 A 33.003 33.003 0 0 0 20.566 29.972 Q 22.835 31.075 26.046 32.323 A 130.016 130.016 0 0 0 28.1 33.1 A 81.228 81.228 0 0 1 33.078 35.129 Q 37.464 37.1 40.45 39.2 A 26.044 26.044 0 0 1 43.49 41.677 Q 45.713 43.806 46.9 46.15 A 17.579 17.579 0 0 1 48.641 52.013 A 22.155 22.155 0 0 1 48.8 54.7 A 21.71 21.71 0 0 1 48.133 60.201 A 17.105 17.105 0 0 1 45.55 65.8 Q 42.3 70.4 36.55 72.8 A 30.521 30.521 0 0 1 29.14 74.804 A 40.027 40.027 0 0 1 23.4 75.2 Q 16.1 75.2 10.1 73.25 A 38.206 38.206 0 0 1 4.733 71.068 A 28.433 28.433 0 0 1 0 68.1 Z M 463.3 68.1 L 468.1 60.1 Q 471.7 63.1 476.2 65 A 23.348 23.348 0 0 0 481.57 66.51 A 32.118 32.118 0 0 0 486.7 66.9 A 27.981 27.981 0 0 0 491.247 66.554 Q 493.67 66.154 495.631 65.293 A 13.701 13.701 0 0 0 498.1 63.9 Q 502.148 61.008 502.295 56.166 A 12.116 12.116 0 0 0 502.3 55.8 A 11.94 11.94 0 0 0 501.963 52.907 A 9.816 9.816 0 0 0 501.1 50.65 A 8.097 8.097 0 0 0 499.9 48.994 Q 498.63 47.613 496.484 46.271 A 25.81 25.81 0 0 0 496.45 46.25 Q 493.334 44.308 487.565 42.08 A 118.584 118.584 0 0 0 486.3 41.6 Q 479.1 38.8 474.8 35.95 A 21.931 21.931 0 0 1 471.711 33.502 Q 469.994 31.853 468.938 29.987 A 13.303 13.303 0 0 1 468.65 29.45 Q 466.8 25.8 466.8 20.8 Q 466.8 15.8 469.55 11.75 Q 472.3 7.7 477.65 5.25 A 25.558 25.558 0 0 1 483.55 3.415 Q 486.793 2.8 490.6 2.8 Q 496.8 2.8 501.75 4.05 Q 506.7 5.3 511.4 7.6 L 507.9 15.7 A 31.496 31.496 0 0 0 503.774 13.681 A 41.686 41.686 0 0 0 499.95 12.35 Q 495.4 11 490.4 11 A 27.187 27.187 0 0 0 486.37 11.28 Q 484.238 11.6 482.5 12.287 A 12.616 12.616 0 0 0 480 13.6 A 9.902 9.902 0 0 0 477.837 15.565 A 7.359 7.359 0 0 0 476.2 20.3 A 10.464 10.464 0 0 0 476.492 22.822 A 8.562 8.562 0 0 0 477.3 24.9 Q 478.356 26.819 481.391 28.647 A 23.503 23.503 0 0 0 481.65 28.8 A 33.003 33.003 0 0 0 483.866 29.972 Q 486.135 31.075 489.346 32.323 A 130.016 130.016 0 0 0 491.4 33.1 A 81.228 81.228 0 0 1 496.378 35.129 Q 500.764 37.1 503.75 39.2 A 26.044 26.044 0 0 1 506.79 41.677 Q 509.013 43.806 510.2 46.15 A 17.579 17.579 0 0 1 511.941 52.013 A 22.155 22.155 0 0 1 512.1 54.7 A 21.71 21.71 0 0 1 511.433 60.201 A 17.105 17.105 0 0 1 508.85 65.8 Q 505.6 70.4 499.85 72.8 A 30.521 30.521 0 0 1 492.44 74.804 A 40.027 40.027 0 0 1 486.7 75.2 Q 479.4 75.2 473.4 73.25 A 38.206 38.206 0 0 1 468.033 71.068 A 28.433 28.433 0 0 1 463.3 68.1 Z M 739.9 74 L 730.9 74 L 730.9 0 L 739.9 0 L 739.9 30.3 Q 742.7 26.2 747 23.5 A 17.572 17.572 0 0 1 754.125 20.991 A 22.595 22.595 0 0 1 757.1 20.8 A 23.225 23.225 0 0 1 762.165 21.318 Q 767.259 22.456 770.25 26.1 Q 774.375 31.126 774.588 39.209 A 33.764 33.764 0 0 1 774.6 40.1 L 774.6 74 L 765.6 74 L 765.6 41.1 Q 765.6 35.5 763 32.1 A 8.42 8.42 0 0 0 756.842 28.753 A 11.979 11.979 0 0 0 755.7 28.7 A 13.23 13.23 0 0 0 748.987 30.566 A 17.586 17.586 0 0 0 746.95 31.95 Q 742.8 35.2 739.9 39.6 L 739.9 74 Z M 170.2 74 L 161.2 74 L 161.2 22 L 169.9 22 L 169.9 30.7 Q 172.7 26.5 177.05 23.65 A 17.316 17.316 0 0 1 184.156 21.025 A 22.629 22.629 0 0 1 187.4 20.8 A 23.225 23.225 0 0 1 192.465 21.318 Q 197.559 22.456 200.55 26.1 Q 204.675 31.126 204.888 39.209 A 33.764 33.764 0 0 1 204.9 40.1 L 204.9 74 L 195.9 74 L 195.9 41.1 A 19.265 19.265 0 0 0 195.558 37.359 Q 195.119 35.145 194.119 33.397 A 10.966 10.966 0 0 0 193.25 32.1 A 8.579 8.579 0 0 0 186.973 28.747 A 12.061 12.061 0 0 0 185.9 28.7 A 13.122 13.122 0 0 0 179.051 30.664 A 17.353 17.353 0 0 0 177.2 31.95 Q 173.1 35.2 170.2 39.6 L 170.2 74 Z M 633.5 74 L 624.5 74 L 624.5 22 L 633.2 22 L 633.2 30.7 Q 636 26.5 640.35 23.65 A 17.316 17.316 0 0 1 647.456 21.025 A 22.629 22.629 0 0 1 650.7 20.8 A 23.225 23.225 0 0 1 655.765 21.318 Q 660.859 22.456 663.85 26.1 Q 667.975 31.126 668.188 39.209 A 33.764 33.764 0 0 1 668.2 40.1 L 668.2 74 L 659.2 74 L 659.2 41.1 A 19.265 19.265 0 0 0 658.858 37.359 Q 658.419 35.145 657.419 33.397 A 10.966 10.966 0 0 0 656.55 32.1 A 8.579 8.579 0 0 0 650.273 28.747 A 12.061 12.061 0 0 0 649.2 28.7 A 13.122 13.122 0 0 0 642.351 30.664 A 17.353 17.353 0 0 0 640.5 31.95 Q 636.4 35.2 633.5 39.6 L 633.5 74 Z M 240.9 69.8 L 244.7 62.3 A 18.557 18.557 0 0 0 247.844 64.426 Q 249.398 65.27 251.25 65.95 A 24.073 24.073 0 0 0 258.861 67.387 A 27.464 27.464 0 0 0 259.7 67.4 Q 265.092 67.4 267.935 65.685 A 7.738 7.738 0 0 0 268.15 65.55 Q 271 63.7 271 60.8 A 7.123 7.123 0 0 0 270.686 58.653 A 6.212 6.212 0 0 0 269.95 57.1 A 6.384 6.384 0 0 0 269.021 56.006 Q 268.007 55.034 266.334 54.081 A 22.3 22.3 0 0 0 266.1 53.95 A 28.462 28.462 0 0 0 264.106 52.957 Q 261.99 51.995 259.001 50.946 A 103.602 103.602 0 0 0 258 50.6 A 46.616 46.616 0 0 1 253.602 48.857 Q 251.488 47.883 249.812 46.795 A 19.335 19.335 0 0 1 247.05 44.65 A 11.324 11.324 0 0 1 243.756 38.654 A 16.794 16.794 0 0 1 243.4 35.1 Q 243.4 29.1 248.65 24.95 Q 253.054 21.469 260.308 20.908 A 37.527 37.527 0 0 1 263.2 20.8 A 40.794 40.794 0 0 1 267.646 21.031 Q 269.954 21.284 271.97 21.815 A 25.234 25.234 0 0 1 272.1 21.85 Q 276 22.9 279.1 24.5 L 276.6 31.9 Q 273.9 30.3 270.45 29.3 A 25.024 25.024 0 0 0 265.967 28.453 A 31.837 31.837 0 0 0 262.8 28.3 A 20.632 20.632 0 0 0 259.863 28.495 Q 256.777 28.94 254.9 30.4 A 9.322 9.322 0 0 0 253.542 31.673 Q 252.84 32.492 252.505 33.365 A 4.529 4.529 0 0 0 252.2 35 A 4.921 4.921 0 0 0 253.695 38.552 A 7.082 7.082 0 0 0 254.3 39.1 Q 256.365 40.772 262.298 42.734 A 84.459 84.459 0 0 0 262.5 42.8 A 67.753 67.753 0 0 1 267.562 44.698 Q 273.489 47.217 276.3 50.1 Q 280.2 54.1 280.2 60.1 Q 280.2 66.848 274.949 70.855 A 16.618 16.618 0 0 1 274.55 71.15 Q 269.81 74.547 262.362 75.095 A 40.423 40.423 0 0 1 259.4 75.2 Q 253.5 75.2 248.75 73.7 A 30.883 30.883 0 0 1 244.91 72.215 Q 242.929 71.284 241.348 70.136 A 18.229 18.229 0 0 1 240.9 69.8 Z M 832.2 51.7 L 795.8 51.7 A 24.088 24.088 0 0 0 796.939 56.725 Q 798.275 60.538 800.9 63.1 Q 805.1 67.2 812 67.2 Q 816.5 67.2 820.1 66.25 Q 823.7 65.3 827 63.8 L 829.1 71.5 A 40.77 40.77 0 0 1 824.765 73.126 A 51.863 51.863 0 0 1 821 74.15 A 38.914 38.914 0 0 1 815.908 74.969 A 52.025 52.025 0 0 1 810.9 75.2 A 28.318 28.318 0 0 1 803.154 74.195 A 21.108 21.108 0 0 1 793.15 68.05 A 23.521 23.521 0 0 1 787.945 58.51 Q 786.6 53.845 786.6 48 A 35.359 35.359 0 0 1 787.433 40.178 A 28.84 28.84 0 0 1 789.55 34.05 A 24.642 24.642 0 0 1 794.566 26.968 A 22.887 22.887 0 0 1 797.8 24.35 A 21.048 21.048 0 0 1 808.059 20.878 A 26.205 26.205 0 0 1 810.1 20.8 Q 817.6 20.8 822.55 24.05 Q 827.5 27.3 830 32.8 A 28.185 28.185 0 0 1 832.426 42.664 A 33.434 33.434 0 0 1 832.5 44.9 A 75.204 75.204 0 0 1 832.209 51.597 A 69.426 69.426 0 0 1 832.2 51.7 Z M 408.3 74 L 398.9 74 L 378 24.4 L 386.2 21 L 403.9 63.8 L 421.6 21 L 429.3 24.4 L 408.3 74 Z M 867.8 74 L 858.4 74 L 837.5 24.4 L 845.7 21 L 863.4 63.8 L 881.1 21 L 888.8 24.4 L 867.8 74 Z M 63.8 56.1 L 63.8 31.7 L 54.8 31.7 L 54.8 23.9 L 64 23.9 L 65.9 7.5 L 72.8 7.5 L 72.8 23.9 L 87.2 23.9 L 87.2 31.7 L 72.8 31.7 L 72.8 56.8 A 21.559 21.559 0 0 0 72.968 59.596 Q 73.441 63.202 75.25 64.9 Q 77.7 67.2 81.1 67.2 Q 83.6 67.2 85.85 66.4 Q 88.1 65.6 90 64.5 L 92.5 71.7 A 18.546 18.546 0 0 1 90.882 72.556 Q 90.08 72.935 89.134 73.308 A 43.365 43.365 0 0 1 87.1 74.05 Q 83.7 75.2 80 75.2 Q 72.5 75.2 68.15 70.25 A 16.116 16.116 0 0 1 64.922 64.348 Q 64.159 61.917 63.915 58.98 A 34.777 34.777 0 0 1 63.8 56.1 Z M 527.1 56.1 L 527.1 31.7 L 518.1 31.7 L 518.1 23.9 L 527.3 23.9 L 529.2 7.5 L 536.1 7.5 L 536.1 23.9 L 550.5 23.9 L 550.5 31.7 L 536.1 31.7 L 536.1 56.8 A 21.559 21.559 0 0 0 536.268 59.596 Q 536.741 63.202 538.55 64.9 Q 541 67.2 544.4 67.2 Q 546.9 67.2 549.15 66.4 Q 551.4 65.6 553.3 64.5 L 555.8 71.7 A 18.546 18.546 0 0 1 554.182 72.556 Q 553.38 72.935 552.434 73.308 A 43.365 43.365 0 0 1 550.4 74.05 Q 547 75.2 543.3 75.2 Q 535.8 75.2 531.45 70.25 A 16.116 16.116 0 0 1 528.222 64.348 Q 527.459 61.917 527.215 58.98 A 34.777 34.777 0 0 1 527.1 56.1 Z M 719.6 23.9 L 716.9 31.5 A 30.422 30.422 0 0 0 713.996 30.224 A 23.42 23.42 0 0 0 711.55 29.45 A 20.543 20.543 0 0 0 708.507 28.924 A 26.355 26.355 0 0 0 705.9 28.8 A 15.889 15.889 0 0 0 698.647 30.443 A 16.132 16.132 0 0 0 694.15 33.85 Q 689.4 38.9 689.4 47.8 A 25.192 25.192 0 0 0 690.105 53.86 A 21.45 21.45 0 0 0 691.4 57.6 A 18.564 18.564 0 0 0 694.31 62.177 A 16.275 16.275 0 0 0 696.95 64.6 Q 700.5 67.2 705.3 67.2 Q 708.465 67.2 710.868 66.61 A 15.08 15.08 0 0 0 711.8 66.35 Q 714.489 65.503 717.576 63.912 A 49.095 49.095 0 0 0 717.6 63.9 L 720.4 71.5 Q 717.3 73.2 713.45 74.2 Q 709.6 75.2 704.7 75.2 A 26.803 26.803 0 0 1 697.661 74.31 A 22.074 22.074 0 0 1 691.75 71.75 Q 686.2 68.3 683.2 62.15 Q 680.2 56 680.2 48 Q 680.2 40.5 683.25 34.3 Q 686.3 28.1 692 24.45 A 23.067 23.067 0 0 1 701.668 21.029 A 29.608 29.608 0 0 1 705.4 20.8 Q 709.8 20.8 713.15 21.6 Q 716.5 22.4 719.6 23.9 Z M 135.1 26.2 L 135.1 22 L 143.3 22 L 143.3 61.4 A 12.15 12.15 0 0 0 143.402 63.036 Q 143.734 65.47 145.15 66.35 Q 147 67.5 149.2 67.5 L 147.3 74.5 A 17.722 17.722 0 0 1 143.035 74.028 Q 137.398 72.628 135.803 67.08 A 13.59 13.59 0 0 1 135.7 66.7 A 21.307 21.307 0 0 1 132.59 70.126 A 28.498 28.498 0 0 1 129.45 72.55 Q 125.5 75.2 119.4 75.2 Q 112.9 75.2 107.6 71.9 A 22.947 22.947 0 0 1 100.187 64.373 A 27.923 27.923 0 0 1 99.15 62.55 A 27.228 27.228 0 0 1 96.52 54.608 A 36.644 36.644 0 0 1 96 48.3 A 33.142 33.142 0 0 1 96.997 40.031 A 27.968 27.968 0 0 1 99.15 34.3 Q 102.3 28.1 107.85 24.45 A 22.297 22.297 0 0 1 119.045 20.844 A 27.388 27.388 0 0 1 120.6 20.8 A 22.584 22.584 0 0 1 125.394 21.29 A 18.703 18.703 0 0 1 128.75 22.35 A 26.002 26.002 0 0 1 133.037 24.644 A 22.103 22.103 0 0 1 135.1 26.2 Z M 360.9 26.2 L 360.9 22 L 369.1 22 L 369.1 61.4 A 12.15 12.15 0 0 0 369.202 63.036 Q 369.534 65.47 370.95 66.35 Q 372.8 67.5 375 67.5 L 373.1 74.5 A 17.722 17.722 0 0 1 368.835 74.028 Q 363.198 72.628 361.603 67.08 A 13.59 13.59 0 0 1 361.5 66.7 A 21.307 21.307 0 0 1 358.39 70.126 A 28.498 28.498 0 0 1 355.25 72.55 Q 351.3 75.2 345.2 75.2 Q 338.7 75.2 333.4 71.9 A 22.947 22.947 0 0 1 325.987 64.373 A 27.923 27.923 0 0 1 324.95 62.55 A 27.228 27.228 0 0 1 322.32 54.608 A 36.644 36.644 0 0 1 321.8 48.3 A 33.142 33.142 0 0 1 322.797 40.031 A 27.968 27.968 0 0 1 324.95 34.3 Q 328.1 28.1 333.65 24.45 A 22.297 22.297 0 0 1 344.845 20.844 A 27.388 27.388 0 0 1 346.4 20.8 A 22.584 22.584 0 0 1 351.194 21.29 A 18.703 18.703 0 0 1 354.55 22.35 A 26.002 26.002 0 0 1 358.837 24.644 A 22.103 22.103 0 0 1 360.9 26.2 Z M 598.4 26.2 L 598.4 22 L 606.6 22 L 606.6 61.4 A 12.15 12.15 0 0 0 606.702 63.036 Q 607.034 65.47 608.45 66.35 Q 610.3 67.5 612.5 67.5 L 610.6 74.5 A 17.722 17.722 0 0 1 606.335 74.028 Q 600.698 72.628 599.103 67.08 A 13.59 13.59 0 0 1 599 66.7 A 21.307 21.307 0 0 1 595.89 70.126 A 28.498 28.498 0 0 1 592.75 72.55 Q 588.8 75.2 582.7 75.2 Q 576.2 75.2 570.9 71.9 A 22.947 22.947 0 0 1 563.487 64.373 A 27.923 27.923 0 0 1 562.45 62.55 A 27.228 27.228 0 0 1 559.82 54.608 A 36.644 36.644 0 0 1 559.3 48.3 A 33.142 33.142 0 0 1 560.297 40.031 A 27.968 27.968 0 0 1 562.45 34.3 Q 565.6 28.1 571.15 24.45 A 22.297 22.297 0 0 1 582.345 20.844 A 27.388 27.388 0 0 1 583.9 20.8 A 22.584 22.584 0 0 1 588.694 21.29 A 18.703 18.703 0 0 1 592.05 22.35 A 26.002 26.002 0 0 1 596.337 24.644 A 22.103 22.103 0 0 1 598.4 26.2 Z M 291.7 57.7 L 291.7 0 L 300.7 0 L 300.7 56.8 A 20.644 20.644 0 0 0 300.888 59.688 Q 301.35 62.952 302.95 64.8 A 7.363 7.363 0 0 0 307.534 67.276 A 10.724 10.724 0 0 0 309.2 67.4 Q 311.1 67.4 312.95 66.95 A 22.192 22.192 0 0 0 314.413 66.544 Q 315.348 66.247 316.1 65.9 L 318.3 73.2 Q 316.901 73.822 314.988 74.323 A 34.978 34.978 0 0 1 313.85 74.6 A 23.816 23.816 0 0 1 310.695 75.085 A 30.514 30.514 0 0 1 308 75.2 A 20.862 20.862 0 0 1 303.11 74.646 A 17.544 17.544 0 0 1 299.7 73.45 A 12.683 12.683 0 0 1 294.375 68.685 A 15.856 15.856 0 0 1 293.85 67.8 Q 292.116 64.654 291.78 60.012 A 32.105 32.105 0 0 1 291.7 57.7 Z M 229.4 74 L 220.4 74 L 220.4 22 L 229.4 22 L 229.4 74 Z M 134.3 60.7 L 134.3 32.8 Q 131.6 30.9 128.35 29.75 Q 125.1 28.6 121.5 28.6 A 15.924 15.924 0 0 0 116.529 29.354 A 14.024 14.024 0 0 0 113.05 31.05 A 16.301 16.301 0 0 0 108.031 36.474 A 19.962 19.962 0 0 0 107.3 37.85 A 20.663 20.663 0 0 0 105.547 43.527 A 27.678 27.678 0 0 0 105.2 48 Q 105.2 53.6 107.3 57.95 A 17.602 17.602 0 0 0 110.406 62.496 A 15.697 15.697 0 0 0 113.1 64.75 Q 116.8 67.2 121.4 67.2 Q 125.2 67.2 128.6 65.35 Q 132 63.5 134.3 60.7 Z M 360.1 60.7 L 360.1 32.8 Q 357.4 30.9 354.15 29.75 Q 350.9 28.6 347.3 28.6 A 15.924 15.924 0 0 0 342.329 29.354 A 14.024 14.024 0 0 0 338.85 31.05 A 16.301 16.301 0 0 0 333.831 36.474 A 19.962 19.962 0 0 0 333.1 37.85 A 20.663 20.663 0 0 0 331.347 43.527 A 27.678 27.678 0 0 0 331 48 Q 331 53.6 333.1 57.95 A 17.602 17.602 0 0 0 336.206 62.496 A 15.697 15.697 0 0 0 338.9 64.75 Q 342.6 67.2 347.2 67.2 Q 351 67.2 354.4 65.35 Q 357.8 63.5 360.1 60.7 Z M 597.6 60.7 L 597.6 32.8 Q 594.9 30.9 591.65 29.75 Q 588.4 28.6 584.8 28.6 A 15.924 15.924 0 0 0 579.829 29.354 A 14.024 14.024 0 0 0 576.35 31.05 A 16.301 16.301 0 0 0 571.331 36.474 A 19.962 19.962 0 0 0 570.6 37.85 A 20.663 20.663 0 0 0 568.847 43.527 A 27.678 27.678 0 0 0 568.5 48 Q 568.5 53.6 570.6 57.95 A 17.602 17.602 0 0 0 573.706 62.496 A 15.697 15.697 0 0 0 576.4 64.75 Q 580.1 67.2 584.7 67.2 Q 588.5 67.2 591.9 65.35 Q 595.3 63.5 597.6 60.7 Z M 795.7 44.4 L 824.2 44.4 A 24.355 24.355 0 0 0 823.796 39.815 Q 823.3 37.231 822.196 35.207 A 12.422 12.422 0 0 0 820.4 32.7 A 12.488 12.488 0 0 0 813.439 28.924 A 18.395 18.395 0 0 0 809.9 28.6 A 13.58 13.58 0 0 0 804.788 29.535 A 12.524 12.524 0 0 0 800.3 32.65 Q 796.5 36.7 795.7 44.4 Z M 220.537 11.288 A 5.973 5.973 0 0 0 224.9 13.1 A 8.175 8.175 0 0 0 226.396 12.969 A 5.647 5.647 0 0 0 229.5 11.35 Q 231.2 9.6 231.2 6.8 A 7.26 7.26 0 0 0 231.2 6.719 A 6.06 6.06 0 0 0 229.35 2.35 A 7.395 7.395 0 0 0 229.292 2.293 A 6.059 6.059 0 0 0 224.9 0.5 A 8.264 8.264 0 0 0 223.244 0.658 A 5.661 5.661 0 0 0 220.3 2.2 A 5.588 5.588 0 0 0 218.829 4.832 A 7.987 7.987 0 0 0 218.6 6.8 A 5.992 5.992 0 0 0 219.092 9.219 A 6.643 6.643 0 0 0 220.45 11.2 A 7.466 7.466 0 0 0 220.537 11.288 Z" vector-effect="non-scaling-stroke"/></g></svg>